PathFileType	4	(X/Y/Z)	OpenSim_Sub10_CSStiffKnee_Gyro.trc
DataRate	CameraRate	NumFrames	NumMarkers	Units	OrigDataRate	OrigDataStartFrame	OrigNumFrames
100	100	30	8	m	100	7153	8174
Frame#	Time	torso_imu_offset_imu	pelvis_imu_offset_imu	tibia_r_imu_offset_imu	femur_r_imu_offset_imu	tibia_l_imu_offset_imu	femur_l_imu_offset_imu	toes_r_imu_offset_imu	toes_l_imu_offset_imu
				X1	Y1	Z1	X2	Y2	Z2	X3	Y3	Z3	X4	Y4	Z4	X5	Y5	Z5	X6	Y6	Z6	X7	Y7	Z7	X8		Y8	Z8	

7153	71.52000000	0.24842427	0.22117578	0.26056527	0.88718720	0.31014561	0.07710309	-0.33559375	-0.33336428	0.17777382	-0.68600767	-0.91647950	-2.60935871	-1.23474683	-0.31011022	2.35551756	0.42375365	0.84047037	-1.56875695	-0.15156065	-0.03566565	0.23940038	1.23080578	-4.10590920	0.84789729
7154	71.53000000	0.36206767	0.21984124	0.29139628	0.92525157	0.37135584	0.13058194	0.03895039	-0.26490710	-0.21887420	-1.76325551	-0.71927084	-2.82178860	-1.68410706	-0.31199960	2.38820604	0.46929959	0.82208213	-1.69495051	-0.14844155	-0.08700425	0.21715946	0.19828546	-3.58261392	1.25872945
7155	71.54000000	0.49845068	0.22871500	0.27681491	0.86130216	0.38641958	0.14153806	-0.15226875	-0.08525679	-0.48644119	-2.23530691	-0.43355517	-2.73742684	-2.12901493	-0.41102297	2.39821643	0.53284262	0.67513359	-1.85121314	-0.05798047	-0.12354826	0.18613584	-0.47614412	-3.43063416	1.42177712
7156	71.55000000	0.58798986	0.26843876	0.23387356	0.72185138	0.36174674	0.09868802	-0.70587769	0.10244483	-0.32482200	-2.05313359	-0.00444587	-2.31104570	-2.43351443	-0.44176054	2.32186747	0.55421822	0.46798092	-1.95174584	-0.08296493	-0.15542579	0.18312371	-0.02123757	-2.97821860	1.32171518
7157	71.56000000	0.54935374	0.24968913	0.21685670	0.57691521	0.29135664	0.01535917	-0.82051749	-0.05685683	-0.04616961	-1.52341960	0.41359477	-1.77153052	-2.53903745	-0.35279568	2.28465116	0.49568507	0.25927809	-1.94080323	-0.05271915	-0.14671683	0.16423801	0.65919857	-2.01652339	0.89940949
7158	71.57000000	0.48542607	0.18246243	0.26250488	0.45364463	0.19587261	-0.07490339	-0.44397075	-0.21995405	0.07774506	-0.92657321	0.63077594	-1.44167771	-2.21107780	-0.36753039	2.32518467	0.38697498	0.08340472	-1.84479129	0.00067608	-0.13050658	0.13019161	0.39310862	-1.31963368	0.64384183
7159	71.58000000	0.44755926	0.14267572	0.33614776	0.34023928	0.11090511	-0.17345164	0.03753980	-0.14693023	0.03853788	-0.28638568	0.63599518	-1.25893064	-1.01750254	-0.61249593	2.17358950	0.25692146	0.00505848	-1.70361300	0.05832032	-0.11276879	0.10207514	-0.09568616	-0.66368353	0.51369944
7160	71.59000000	0.39333339	0.11287455	0.40025039	0.25392378	0.03859961	-0.27276031	0.41826736	-0.14556814	-0.04462664	0.34611276	0.50593052	-1.08229080	0.52524261	-0.66118835	1.70700250	0.11350672	0.06558079	-1.52324987	0.14723624	-0.09673433	0.06475210	-0.09555147	-0.22011356	0.43079979
7161	71.60000000	0.37904416	0.05283254	0.44520839	0.22102245	-0.01139660	-0.35110344	0.53427552	-0.26284089	-0.09148117	0.80315629	0.31392012	-0.96288183	1.51936801	-0.49201399	1.04947500	-0.01757860	0.26437586	-1.40064324	0.21129339	-0.07806948	0.01696977	-0.17507147	0.22338567	0.47702484
7162	71.61000000	0.45723316	-0.03954006	0.45024021	0.23233425	-0.02166477	-0.40985318	0.38896290	-0.24593490	-0.08489967	1.00065347	0.12157621	-1.01233181	1.98943653	-0.34872948	0.35881334	-0.11304947	0.48032165	-1.30408675	0.22975814	-0.06462671	-0.03964508	0.04577012	0.80349010	0.52807334
7163	71.62000000	0.58928705	-0.13221270	0.40879382	0.27783431	0.01446094	-0.45133606	0.16674417	-0.14655377	-0.05754639	0.96836788	-0.02910066	-1.17346814	2.19833701	-0.23822725	-0.20452134	-0.19091079	0.54583710	-1.14690609	0.23042514	-0.03709698	-0.08672473	0.25885872	1.36390865	0.61246541
7164	71.63000000	0.67129601	-0.17996681	0.34032556	0.32958985	0.08572276	-0.48653640	0.07309262	-0.13227065	-0.02849387	0.89096743	-0.13925662	-1.32636605	2.14118478	-0.22210089	-0.62389733	-0.29909591	0.46648860	-1.00326466	0.23574032	0.00311716	-0.13291368	0.50379043	1.89585988	0.73319907
7165	71.64000000	0.65024091	-0.16414767	0.26258492	0.38077510	0.15531764	-0.51504988	0.11094221	-0.13755221	-0.00789939	0.77738685	-0.21206668	-1.39410080	2.03509072	-0.30563644	-0.98563062	-0.42735456	0.34749625	-0.85434532	0.31484091	0.06137395	-0.18017509	0.71801318	2.39004201	0.88892383
7166	71.65000000	0.56730766	-0.15176847	0.21975036	0.42408089	0.21439697	-0.53005728	0.09041517	-0.15260482	-0.03439479	0.54935700	-0.19219808	-1.38391376	2.00147770	-0.37931300	-1.37100245	-0.53471282	0.27150044	-0.75497494	0.29470666	0.08503486	-0.18547764	0.85140627	2.83987255	1.04724906
7167	71.66000000	0.52231258	-0.17113212	0.20744360	0.45326548	0.25578728	-0.52584813	-0.07195624	-0.19371453	-0.10127830	0.27559483	-0.05329650	-1.31162023	2.04825558	-0.37523396	-1.80993945	-0.60584245	0.27817493	-0.71152676	0.26876659	0.10067804	-0.16057390	0.96697937	3.21815128	1.15113549
7168	71.67000000	0.51766564	-0.18829948	0.18635257	0.45333936	0.26345996	-0.49191504	-0.23616348	-0.20307172	-0.17129707	0.10529547	0.11159251	-1.18216799	2.17378620	-0.33713040	-2.25369325	-0.62166356	0.37045217	-0.68738456	0.17600922	0.08138175	-0.12380826	1.13256782	3.50719701	1.17086275
7169	71.68000000	0.50288098	-0.22906549	0.17263880	0.42678528	0.26552870	-0.42675367	-0.30096375	-0.19631825	-0.21752206	0.06417627	0.19440854	-1.03703715	2.31549948	-0.30704565	-2.64180209	-0.54754923	0.48158116	-0.72001761	0.11751840	0.05421437	-0.09392188	1.21453929	3.69920679	1.12427290
7170	71.69000000	0.47083037	-0.27626036	0.16345100	0.39258596	0.25840385	-0.33985933	-0.30674524	-0.16557146	-0.23330878	0.02703150	0.17502764	-0.92497363	2.40336619	-0.26176853	-2.96668095	-0.46987586	0.52475425	-0.74003220	0.08678477	0.04274163	-0.07287988	1.18654496	3.79585466	1.04288174
7171	71.70000000	0.45863931	-0.30903182	0.16908333	0.35886670	0.20755808	-0.24039051	-0.28536922	-0.11417701	-0.25670264	-0.08478304	0.12052806	-0.88255970	2.30305577	-0.19745263	-3.22813958	-0.39316799	0.53286773	-0.72388362	0.04543115	0.03395832	-0.04915388	1.11828092	3.81280239	0.92789462
7172	71.71000000	0.46928282	-0.33473176	0.16024469	0.32586478	0.13020010	-0.15158462	-0.25553293	-0.09009467	-0.29892163	-0.20987530	0.08900786	-0.92581987	1.97991736	-0.14541081	-3.41054675	-0.33435241	0.52206595	-0.70223127	-0.01363861	0.01794280	-0.02107539	1.04940116	3.72405374	0.79182050
7173	71.72000000	0.48682464	-0.32997468	0.12990478	0.30837613	0.06755582	-0.07446684	-0.19822531	-0.08838615	-0.36767018	-0.27916463	0.10834372	-1.00269300	1.51751762	-0.10232416	-3.51822918	-0.31896539	0.49875860	-0.67108266	-0.07022016	-0.00769435	-0.01793013	0.95857457	3.47000452	0.66712016
7174	71.73000000	0.51914604	-0.30272162	0.09921498	0.31017371	0.06099799	-0.00035705	-0.11546353	-0.06329154	-0.40660593	-0.25744583	0.14531754	-1.05185959	1.00963813	-0.01802379	-3.57684323	-0.31783409	0.47610366	-0.65687877	-0.06257960	-0.00825405	-0.03493666	0.75174727	3.12194684	0.51952466
7175	71.74000000	0.52895695	-0.30369351	0.07879647	0.30309796	0.08398088	0.05008041	-0.07354972	-0.02492962	-0.42267446	-0.15095572	0.15407149	-1.05420204	0.56000365	0.11294537	-3.60598864	-0.30101447	0.44575887	-0.66013173	-0.03708179	-0.01789157	-0.05194310	0.59211867	2.89018656	0.25167078
7176	71.75000000	0.45846005	-0.30354099	0.06742972	0.28937876	0.12326719	0.08322928	-0.03801417	-0.00597465	-0.43169807	0.00300538	0.13262039	-1.03037811	0.28712040	0.24683165	-3.59569354	-0.26449930	0.42911248	-0.68481346	-0.06510282	-0.02647243	-0.06566583	0.58271080	2.87313637	-0.15760367
7177	71.76000000	0.32461248	-0.30952115	0.07843546	0.27942106	0.17328719	0.09985117	-0.02467915	-0.02559667	-0.45640577	0.15923217	0.10415818	-0.99389964	0.12228664	0.30793487	-3.54890921	-0.20905768	0.42306772	-0.74692343	-0.07975002	-0.03585380	-0.07547831	0.57454039	2.90616460	-0.59915609
7178	71.77000000	0.30719111	-0.29726729	0.11239879	0.26645244	0.20877539	0.10801480	-0.06144514	-0.04332241	-0.48570677	0.30059254	0.07624936	-0.95136177	-0.09248597	0.27893007	-3.47886562	-0.12409263	0.41492916	-0.83562882	-0.05848254	-0.05364497	-0.08643363	0.42086644	2.84628891	-0.97794611
7179	71.78000000	0.33617697	-0.23622131	0.12704950	0.25548331	0.22490798	0.11510995	-0.11716120	-0.01184707	-0.49679356	0.43138308	0.03738154	-0.93508125	-0.29407092	0.22418173	-3.39632344	-0.07231822	0.40585057	-0.83380237	-0.04333316	-0.07441800	-0.08647104	0.17184909	2.74242391	-1.28561970
7180	71.79000000	0.31071122	-0.19321166	0.12193252	0.24738782	0.23994752	0.11611509	-0.16249149	0.01121543	-0.51791448	0.54182487	-0.00454490	-0.93510261	-0.46260129	0.23311707	-3.32850701	0.04728697	0.40468719	-0.82192305	-0.04265332	-0.08348042	-0.07564235	-0.11472977	2.66355637	-1.54644473
7181	71.80000000	0.27782800	-0.17554117	0.10984342	0.23823520	0.24960475	0.10908268	-0.15754084	0.00813207	-0.56356150	0.59914255	-0.02279387	-0.94024489	-0.67236768	0.33908038	-3.29107694	0.18811325	0.38261906	-0.85237651	-0.03694631	-0.08948437	-0.07794067	-0.31060341	2.60755771	-1.79193664
7182	71.81000000	0.25870242	-0.16343775	0.10419425	0.22692144	0.24417358	0.09985318	-0.10893788	0.03743425	-0.61279040	0.59432722	-0.02021731	-0.94714136	-0.90262591	0.47447748	-3.24834718	0.28325393	0.35928546	-0.82394129	-0.04595540	-0.11153089	-0.07933131	-0.41573597	2.53790479	-1.98841853
